<svg width="19" height="18" viewBox="0 0 19 18" fill="none" xmlns="http://www.w3.org/2000/svg">
<path fill-rule="evenodd" clip-rule="evenodd" d="M18.14 9.2037C18.14 8.56552 18.0827 7.95188 17.9764 7.36279H9.5V10.8442H14.3436C14.135 11.9692 13.5009 12.9223 12.5477 13.5605V15.8187H15.4564C17.1582 14.2519 18.14 11.9446 18.14 9.2037Z" fill="#4285F4"/>
<path fill-rule="evenodd" clip-rule="evenodd" d="M9.49976 18.0004C11.9298 18.0004 13.967 17.1945 15.4561 15.82L12.5475 13.5618C11.7416 14.1018 10.7107 14.4209 9.49976 14.4209C7.15567 14.4209 5.17158 12.8377 4.46385 10.7104H1.45703V13.0423C2.93794 15.9836 5.98158 18.0004 9.49976 18.0004Z" fill="#34A853"/>
<path fill-rule="evenodd" clip-rule="evenodd" d="M4.46409 10.7103C4.28409 10.1703 4.18182 9.5935 4.18182 9.00031C4.18182 8.40713 4.28409 7.83031 4.46409 7.29031V4.9585H1.45727C0.847727 6.1735 0.5 7.54804 0.5 9.00031C0.5 10.4526 0.847727 11.8271 1.45727 13.0421L4.46409 10.7103Z" fill="#FBBC05"/>
<path fill-rule="evenodd" clip-rule="evenodd" d="M9.49976 3.57906C10.8211 3.57906 12.0075 4.03315 12.9402 4.92497L15.5216 2.3436C13.9629 0.89133 11.9257 -0.000488281 9.49976 -0.000488281C5.98158 -0.000488281 2.93794 2.01633 1.45703 4.95769L4.46385 7.28951C5.17158 5.16224 7.15567 3.57906 9.49976 3.57906Z" fill="#EA4335"/>
</svg>
