<svg width="100" height="100" viewBox="0 0 100 100" fill="none" xmlns="http://www.w3.org/2000/svg">
<path d="M49.9 100.2C22.2 100.2 -0.200012 77.7 -0.200012 50.1C-0.200012 22.5 22.2 0 49.9 0C77.6 0 100 22.5 100 50.1C100 77.7 77.5 100.2 49.9 100.2ZM49.9 2.4C23.6 2.4 2.19999 23.8 2.19999 50.1C2.19999 76.4 23.6 97.7 49.8 97.7C76 97.7 97.4 76.3 97.4 50.1C97.4 23.9 76.2 2.4 49.9 2.4Z" fill="#1EBCC5"/>
<path d="M46.8 72C45.4 72 43.9 71.4 42.8 70.3L29.3 56.8C27.9 55.4 27.1 53.5 27.1 51.5C27.1 49.5 27.9 47.6 29.3 46.2C30.7 44.8 32.6 44 34.6 44C36.6 44 38.5 44.8 39.9 46.2L46.8 53.1L62.9 37C65.8 34.1 70.6 34.1 73.5 37C74.9 38.4 75.7 40.3 75.7 42.3C75.7 44.3 74.9 46.2 73.5 47.6L50.8 70.3C49.7 71.4 48.3 72 46.8 72ZM34.6 46.6C33.3 46.6 32 47.1 31.1 48.1C30.2 49 29.6 50.3 29.6 51.6C29.6 52.9 30.1 54.2 31.1 55.1L44.6 68.6C45.8 69.8 47.9 69.8 49.1 68.6L71.8 45.9C72.7 45 73.3 43.7 73.3 42.4C73.3 41.1 72.8 39.8 71.8 38.9C69.8 36.9 66.7 36.9 64.7 38.9L46.9 56.7L38.2 48C37.3 47.1 36 46.5 34.7 46.5L34.6 46.6Z" fill="#1EBCC5"/>
</svg>
