<svg width="100" height="100" viewBox="0 0 100 100" fill="none" xmlns="http://www.w3.org/2000/svg">
<g clip-path="url(#clip0_4467_2)">
<path d="M49.9 100.2C22.3 100.2 -0.199997 77.7 -0.199997 50.1C-0.199997 22.5 22.3 0 49.9 0C77.5 0 100 22.5 100 50.1C100 77.7 77.5 100.2 49.9 100.2ZM49.9 2.4C23.6 2.4 2.2 23.8 2.2 50.1C2.2 76.4 23.6 97.8 49.9 97.8C76.2 97.8 97.6 76.4 97.6 50.1C97.6 23.8 76.2 2.4 49.9 2.4Z" fill="#1EBCC5"/>
<path d="M65.3 76.6H34.4C31.9 76.6 29.9 74.6 29.9 72.1V27.9C29.9 25.4 31.9 23.4 34.4 23.4H65.3C67.8 23.4 69.8 25.4 69.8 27.9V72.2C69.8 74.7 67.8 76.7 65.3 76.7V76.6ZM34.4 25.9C33.3 25.9 32.5 26.8 32.5 27.8V72.1C32.5 73.2 33.4 74.1 34.4 74.1H65.3C66.4 74.1 67.2 73.2 67.2 72.1V27.9C67.2 26.8 66.3 26 65.3 26H34.4V25.9Z" fill="#1EBCC5"/>
<path d="M63.4 36.4C63.4 38 61.8 38.9 59.9 38.9L59.6 39.8H57.5L57.9 38.5C57.1 38.1 56.5 37.3 56.7 36.1H58.6C58.6 36.7 58.9 37.3 59.8 37.3C60.7 37.3 61.2 36.9 60.9 36.3C60.4 35.3 56.6 35.8 56.6 33.1C56.6 30.4 60 30.6 60 30.6L60.3 29.7H62.4L62 31.1C62.7 31.5 63.3 32.2 63 33.5H61.1C61.1 32.7 60.7 32.3 59.9 32.3C59.1 32.3 58.8 32.6 58.8 33.1C58.8 34.7 63.4 33.4 63.4 36.5V36.4Z" fill="#1EBCC5"/>
<path d="M51.7 36H37.7C37 36 36.5 35.5 36.5 34.8C36.5 34.1 37 33.6 37.7 33.6H51.7C52.4 33.6 52.9 34.1 52.9 34.8C52.9 35.5 52.4 36 51.7 36Z" fill="#1EBCC5"/>
<path d="M51.7 43.8H37.7C37 43.8 36.5 43.3 36.5 42.6C36.5 41.9 37 41.4 37.7 41.4H51.7C52.4 41.4 52.9 41.9 52.9 42.6C52.9 43.3 52.4 43.8 51.7 43.8Z" fill="#1EBCC5"/>
<path d="M62.2 51.5999H37.8C37.1 51.5999 36.6 51.1 36.6 50.4C36.6 49.7 37.1 49.2 37.8 49.2H62.2C62.9 49.2 63.4 49.7 63.4 50.4C63.4 51.1 62.9 51.5999 62.2 51.5999Z" fill="#1EBCC5"/>
<path d="M62.2 59.5H37.8C37.1 59.5 36.6 59 36.6 58.3C36.6 57.6 37.1 57.1 37.8 57.1H62.2C62.9 57.1 63.4 57.6 63.4 58.3C63.4 59 62.9 59.5 62.2 59.5Z" fill="#1EBCC5"/>
<path d="M62.2 67.2H37.8C37.1 67.2 36.6 66.7 36.6 66C36.6 65.3 37.1 64.8 37.8 64.8H62.2C62.9 64.8 63.4 65.3 63.4 66C63.4 66.7 62.9 67.2 62.2 67.2Z" fill="#1EBCC5"/>
</g>
<defs>
<clipPath id="clip0_4467_2">
<rect width="100" height="100" fill="white"/>
</clipPath>
</defs>
</svg>
