<svg width="100" height="100" viewBox="0 0 100 100" fill="none" xmlns="http://www.w3.org/2000/svg">
<path d="M49.9 100.2C22.3 100.2 -0.200012 77.7 -0.200012 50.1C-0.200012 22.5 22.3 0 49.9 0C77.5 0 100 22.5 100 50.1C100 77.7 77.5 100.2 49.9 100.2ZM49.9 2.4C23.6 2.4 2.19999 23.8 2.19999 50.1C2.19999 76.4 23.6 97.8 49.9 97.8C76.2 97.8 97.6 76.4 97.6 50.1C97.6 23.8 76.2 2.4 49.9 2.4Z" fill="#1EBCC5"/>
<path d="M67.1 52H63V50.1H67.1C67.9 50.1 68.6 49.4 68.6 48.6V47.9C68.6 47.1 67.9 46.4 67.1 46.4H63V44.5H67.1C69 44.5 70.6 46 70.6 48V48.7C70.6 50.6 69.1 52.2 67.1 52.2V52Z" fill="#1EBCC5"/>
<path d="M63.3 42.1L62.7 40.3L69 38.4C69.8 38.2 70.2 37.3 70 36.6L69.8 35.9C69.6 35.1 68.7 34.7 68 34.9L63.4 36.3L62.8 34.5L67.5 33.1C69.3 32.6 71.3 33.6 71.8 35.5L72 36.2C72.5 38 71.5 40 69.6 40.5L63.3 42.4V42.1Z" fill="#1EBCC5"/>
<path d="M68.4 57.7H62.9V55.8H68.4C69.2 55.8 69.9 55.1 69.9 54.3V53.5C69.9 52.7 69.2 52 68.4 52H62.9V50.1H68.4C70.3 50.1 71.9 51.6 71.9 53.6V54.4C71.9 56.3 70.4 57.9 68.4 57.9V57.7Z" fill="#1EBCC5"/>
<path d="M67.8 63.4H63V61.5H67.8C68.6 61.5 69.3 60.8 69.3 60V59.2C69.3 58.4 68.6 57.7 67.8 57.7H63V55.8H67.8C69.7 55.8 71.3 57.3 71.3 59.3V60.1C71.3 62 69.8 63.6 67.8 63.6V63.4Z" fill="#1EBCC5"/>
<path d="M57.8 71.4H42.2C41.4 71.4 40.7 71.3 39.8 71L40.7 68.7C41.1 68.9 41.6 69 42.1 69H57.7C59.8 69 61.7 67.3 61.7 65V30.1C61.7 28 60 26.1 57.7 26.1H42.1C40 26.1 38.1 27.8 38.1 30.1V41.6H35.6V30.1C35.6 26.5 38.5 23.7 42 23.7H57.6C61.2 23.7 64 26.6 64 30.1V65.1C64 68.7 61.1 71.5 57.6 71.5L57.8 71.4Z" fill="#1EBCC5"/>
<path d="M52.3 30.9H47.5C46.8 30.9 46.3 30.4 46.3 29.7C46.3 29 46.8 28.5 47.5 28.5H52.3C53 28.5 53.5 29 53.5 29.7C53.5 30.4 53 30.9 52.3 30.9Z" fill="#1EBCC5"/>
<path d="M40.2 72.7C39.7 72.7 39.3 72.2 39.3 71.7C40.3 59.9 36.9 56.4 36.9 56.3C36.6 56 36.5 55.5 36.7 55.2C38.5 51.6 38.6 45.4 37.3 43.1C36.9 42.5 36.6 42.5 36.5 42.5C35.5 42.5 34.7333 43.3 34.2 44.9C33.9 45.8 33.5 47.2 32.8 48.9C30.7 54 30.4 62.5 30.4 62.6C30.4 62.8 30.4 63.1 30.1 63.2L26.7 66.8C26.3 67.2 25.7 67.2 25.3 66.8C24.9 66.4 24.9 65.8 25.3 65.4L28.4 62C28.4 60.3 28.8 52.8 30.9 48C31.6 46.5 31.9 45.2 32.2 44.2C32.9 41.8 33.3 40.5 36.3 40.5C39.3 40.5 38 40.8 38.8 42.1C40.5 45 40.3 51.4 38.6 55.5C39.6 57 42 61.5 41.1 71.9C41.1 72.4 40.6 72.8 40.1 72.8H40.3L40.2 72.7Z" fill="#1EBCC5"/>
<path d="M38.4 79.7C38.1 79.7 37.9 79.7 37.7 79.4C37.3 79 37.3 78.4 37.7 78L40.9 74.9C41.1 74.7 41.4 74.6 41.6 74.6C41.6 74.6 48.8 75 52.4 70.4C52.7 70 53.3 69.9 53.8 70.2C54.2 70.5 54.3 71.1 54 71.6C50.2 76.4 43.7 76.7 41.9 76.6L39 79.4C38.8 79.6 38.6 79.7 38.3 79.7H38.4Z" fill="#1EBCC5"/>
<path d="M54.3 50.2C54.3 52.3 52.2 53.3 49.8 53.4L49.5 54.5H46.7L47.2 52.8C46.2 52.3 45.4 51.3 45.7 49.8H48.3C48.3 50.5 48.7 51.3 49.9 51.3C51.1 51.3 51.7 50.8 51.3 50.1C50.7 48.9 45.8 49.5 45.8 46C45.8 42.5 50.1 42.8 50.1 42.8L50.4 41.7H53.2L52.7 43.4C53.6 43.9 54.4 44.8 54 46.4H51.4C51.5 45.4 50.9 44.8 49.8 44.8C48.7 44.8 48.4 45.2 48.4 45.8C48.4 47.8 54.2 46.2 54.2 50.1H54.3V50.2Z" fill="#1EBCC5"/>
</svg>
