<?xml version="1.0" encoding="UTF-8"?>
<svg id="Camada_1" xmlns="http://www.w3.org/2000/svg" version="1.1" viewBox="0 0 1360.6 765.4">
  <!-- Generator: Adobe Illustrator 29.1.0, SVG Export Plug-In . SVG Version: 2.1.0 Build 142)  -->
  <defs>
    <style>
      .st0 {
        fill: #fff;
      }

      .st1 {
        fill: none;
        stroke: #fff;
        stroke-miterlimit: 10;
        stroke-width: 2px;
      }

      .st2 {
        opacity: 0;
      }
    </style>
  </defs>
  <circle class="st2" cx="168.4" cy="205.4" r="47.6"/>
  <circle class="st2" cx="983.3" cy="529.9" r="47.6"/>
  <g>
    <path class="st1" d="M217.4,205.1h41.5c54.9,0,99.4,44.5,99.4,99.4h0c0,54.9-44.5,99.4-99.4,99.4H121.5c-34.8,0-63,28.2-63,63h0c0,34.8,28.2,63,63,63h812.9"/>
    <g>
      <path class="st0" d="M168.4,254.1c-27,0-49-22-49-49s22-49,49-49,49,22,49,49-22,49-49,49ZM168.4,158.5c-25.7,0-46.6,20.9-46.6,46.6s20.9,46.6,46.6,46.6,46.6-20.9,46.6-46.6-20.9-46.6-46.6-46.6Z"/>
      <path class="st0" d="M183.5,231.1h-30.2c-2.4,0-4.4-2-4.4-4.4v-43.3c0-2.4,2-4.4,4.4-4.4h30.2c2.4,0,4.4,2,4.4,4.4v43.3c0,2.4-2,4.4-4.4,4.4ZM153.3,181.5c-1.1,0-1.9.9-1.9,1.9v43.3c0,1.1.9,2,1.9,2h30.2c1.1,0,1.9-.9,1.9-2v-43.3c0-1.1-.9-1.9-1.9-1.9h-30.2Z"/>
      <path class="st0" d="M181.6,191.8c0,1.6-1.6,2.4-3.4,2.4l-.3.9h-2.1l.4-1.3c-.8-.4-1.4-1.2-1.2-2.3h1.9c0,.6.3,1.2,1.2,1.2s1.4-.4,1.1-1c-.5-1-4.2-.5-4.2-3.1s3.3-2.4,3.3-2.4l.3-.9h2.1l-.4,1.4c.7.4,1.3,1.1,1,2.3h-1.9c0-.8-.4-1.2-1.2-1.2s-1.1.3-1.1.8c0,1.6,4.5.3,4.5,3.3Z"/>
      <g>
        <path class="st0" d="M170.2,191.4h-13.7c-.7,0-1.2-.5-1.2-1.2s.5-1.2,1.2-1.2h13.7c.7,0,1.2.5,1.2,1.2s-.5,1.2-1.2,1.2Z"/>
        <path class="st0" d="M170.2,199h-13.7c-.7,0-1.2-.5-1.2-1.2s.5-1.2,1.2-1.2h13.7c.7,0,1.2.5,1.2,1.2s-.5,1.2-1.2,1.2Z"/>
        <path class="st0" d="M180.4,206.6h-23.9c-.7,0-1.2-.5-1.2-1.2s.5-1.2,1.2-1.2h23.9c.7,0,1.2.5,1.2,1.2s-.5,1.2-1.2,1.2Z"/>
        <path class="st0" d="M180.4,214.3h-23.9c-.7,0-1.2-.5-1.2-1.2s.5-1.2,1.2-1.2h23.9c.7,0,1.2.5,1.2,1.2s-.5,1.2-1.2,1.2Z"/>
        <path class="st0" d="M180.4,221.9h-23.9c-.7,0-1.2-.5-1.2-1.2s.5-1.2,1.2-1.2h23.9c.7,0,1.2.5,1.2,1.2s-.5,1.2-1.2,1.2Z"/>
      </g>
    </g>
    <g>
      <path class="st0" d="M983.3,578.9c-27,0-49-22-49-49s22-49,49-49,49,22,49,49-22,49-49,49ZM983.3,483.3c-25.7,0-46.6,20.9-46.6,46.6s20.9,46.6,46.6,46.6,46.6-20.9,46.6-46.6-20.9-46.6-46.6-46.6Z"/>
      <path class="st0" d="M1000.1,531.8h-4v-1.9h4c.8,0,1.5-.7,1.5-1.5v-.7c0-.8-.7-1.5-1.5-1.5h-4v-1.9h4c1.9,0,3.4,1.5,3.4,3.4v.7c0,1.9-1.5,3.4-3.4,3.4Z"/>
      <path class="st0" d="M996.4,522.1l-.6-1.8,6.2-1.9c.8-.2,1.2-1.1,1-1.8l-.2-.7c-.2-.8-1.1-1.2-1.8-1l-4.5,1.4-.6-1.8,4.6-1.4c1.8-.5,3.7.5,4.2,2.3l.2.7c.5,1.8-.5,3.7-2.3,4.2l-6.2,1.9Z"/>
      <path class="st0" d="M1001.4,537.4h-5.4v-1.9h5.4c.8,0,1.5-.7,1.5-1.5v-.8c0-.8-.7-1.5-1.5-1.5h-5.4v-1.9h5.4c1.9,0,3.4,1.5,3.4,3.4v.8c0,1.9-1.5,3.4-3.4,3.4Z"/>
      <path class="st0" d="M1000.8,543h-4.7v-1.9h4.7c.8,0,1.5-.7,1.5-1.5v-.8c0-.8-.7-1.5-1.5-1.5h-4.7v-1.9h4.7c1.9,0,3.4,1.5,3.4,3.4v.8c0,1.9-1.5,3.4-3.4,3.4Z"/>
      <path class="st0" d="M991,550.8h-15.3c-.8,0-1.5-.1-2.3-.4l.9-2.2c.4.2.9.3,1.4.3h15.3c2.1,0,3.9-1.7,3.9-3.9v-34.2c0-2.1-1.7-3.9-3.9-3.9h-15.3c-2.1,0-3.9,1.7-3.9,3.9v11.2h-2.4v-11.2c0-3.5,2.8-6.3,6.3-6.3h15.3c3.5,0,6.3,2.8,6.3,6.3v34.2c0,3.5-2.8,6.3-6.3,6.3Z"/>
      <path class="st0" d="M985.7,511.2h-4.7c-.7,0-1.2-.5-1.2-1.2s.5-1.2,1.2-1.2h4.7c.7,0,1.2.5,1.2,1.2s-.5,1.2-1.2,1.2Z"/>
      <path class="st0" d="M973.8,552s0,0,0,0c-.5,0-.9-.5-.9-1,1-11.5-2.3-15-2.3-15.1-.3-.3-.4-.8-.2-1.1,1.8-3.5,1.9-9.6.6-11.8-.4-.6-.7-.6-.8-.6-1.5,0-1.5,0-2.2,2.3-.3.9-.7,2.2-1.4,3.9-2.1,5-2.3,13.3-2.3,13.4,0,.2,0,.5-.3.6l-3.3,3.5c-.4.4-1,.4-1.4,0-.4-.4-.4-1,0-1.4l3-3.3c0-1.7.4-9,2.4-13.7.7-1.5,1-2.7,1.3-3.7.7-2.3,1.1-3.6,4-3.6s1.7.3,2.4,1.6c1.7,2.8,1.5,9.1-.2,13.1,1,1.5,3.3,5.9,2.4,16,0,.5-.5.9-1,.9Z"/>
      <path class="st0" d="M972.1,558.9c-.3,0-.5,0-.7-.3-.4-.4-.4-1,0-1.4l3.1-3c.2-.2.5-.3.7-.3,0,0,7,.4,10.6-4.1.3-.4.9-.5,1.4-.2.4.3.5.9.2,1.4-3.7,4.7-10.1,5-11.8,4.9l-2.8,2.7c-.2.2-.4.3-.7.3Z"/>
      <path class="st0" d="M987.6,530c0,2.1-2.1,3-4.4,3.1l-.3,1.1h-2.7l.5-1.7c-1-.5-1.8-1.5-1.5-2.9h2.5c0,.7.4,1.5,1.6,1.5s1.8-.5,1.4-1.2c-.6-1.2-5.4-.6-5.4-4s4.2-3.1,4.2-3.1l.3-1.1h2.7l-.5,1.7c.9.5,1.7,1.4,1.3,2.9h-2.5c.1-1-.5-1.6-1.6-1.6s-1.4.4-1.4,1c0,2,5.7.4,5.7,4.2Z"/>
    </g>
    <line class="st1" x1="121" y1="205.1" y2="205.1"/>
    <line class="st1" x1="1360.6" y1="529.9" x2="1029.9" y2="529.9"/>
  </g>
</svg>