<?xml version="1.0" encoding="utf-8"?>
<!-- Generator: Adobe Illustrator 29.1.0, SVG Export Plug-In . SVG Version: 9.03 Build 55587)  -->
<svg version="1.0" id="Camada_1" xmlns="http://www.w3.org/2000/svg" xmlns:xlink="http://www.w3.org/1999/xlink" x="0px" y="0px"
	 viewBox="0 0 4754.69 1350" style="enable-background:new 0 0 4754.69 1350;" xml:space="preserve">
<style type="text/css">
	.st0{fill:#FFFFFF;}
</style>
<g>
	<path class="st0" d="M1474.36,959.02c0,86.92-87.94,127.79-185,128.98l-14.05,48.61h-114.93l20.43-70.58
		c-41.12-20.6-76.72-62.74-62.66-122.42h104.72c-4.12,31.37,15.69,62.83,66.06,62.83c36.45,0,75.14-21.08,60.36-51.93
		c-24.79-51.74-228.33-24.69-228.33-167.54c0-137.55,178.95-132.13,178.95-132.13l14.05-48.53h114.85l-21.37,73.72
		c37.55,20.86,69.88,58.55,56.1,122.17h-104.63c4.69-43.33-22.68-65.81-65.64-65.81c-39.33,0-61.21,18.64-61.21,43.5
		C1232.07,864.18,1474.36,797.6,1474.36,959.02z"/>
	<path class="st0" d="M1795.6,1064.46c-18.19,7.24-63.96,19.07-94.75,19.07c-108.29,0-165.07-59.34-165.07-178.02V752.28h-42.48
		v-92.11h42.48V530.25h120.55v129.91h122.08v92.11h-122.08v147.96c0,117.68,107.4,72.85,107.4,72.85
		C1764.83,1008.42,1776.11,1040.28,1795.6,1064.46z"/>
	<path class="st0" d="M714.56,1063.5c-18.61,8.21-67.17,20.01-97.82,20.01c-108.29,0-165.07-59.34-165.07-178.02V530.22h120.55
		v369.99c0,55.42,21.35,86.56,83.77,78.92C669.52,1011.99,689.36,1040.43,714.56,1063.5z"/>
	<path class="st0" d="M420.73,983.5c-28.17,8.94-37.46-4.28-37.46-21.37c0-25.87,3.16-149-4.09-182.19
		c-17.28-79.21-78.83-125.06-182.95-125.06c-113.57,0-181.34,53.12-182.61,132.81c-0.42,30.31,3.72,46.2,6.36,53.44
		c28.77-19.41,65.16-31.33,101.09-38.65c-5.21-36.53,24.42-56.42,69.88-56.42c39.76,0,59.11,19.42,67,33.97
		c9.67,17.84,8.17,55.51,8.17,55.51S0,823.05,0,960.09c0,82.36,48.12,123.44,139.45,123.44c85.56,0,119.69-40.69,132.72-66.4
		c7.91,44.27,38.48,66.4,95.26,66.4c31.93,0,56.61-7.32,58.49-7.92c0.08,0,0.08,0,0.08,0L420.73,983.5z M266.13,931.48
		c0,0.68,0,1.36-0.09,2.04c-2.13,32.35-36.69,60.62-92.54,60.62c-35.84,0-57.64-14.22-57.64-41.63c0-2.04,0.17-4,0.43-5.87
		c4.51-34.56,50.91-47.51,144.56-49.97h5.28V931.48z"/>
	<path class="st0" d="M2226.93,983.5c-28.17,8.94-37.46-4.28-37.46-21.37c0-25.87,3.16-149-4.09-182.19
		c-17.28-79.21-78.83-125.06-182.95-125.06c-113.57,0-181.34,53.12-182.61,132.81c-0.42,30.31,3.72,46.2,6.36,53.44
		c28.77-19.41,65.16-31.33,101.09-38.65c-5.21-36.53,24.42-56.42,69.88-56.42c39.76,0,59.11,19.42,67,33.97
		c9.68,17.84,8.17,55.51,8.17,55.51s-266.13-12.49-266.13,124.55c0,82.36,48.12,123.44,139.45,123.44
		c85.56,0,119.69-40.69,132.72-66.4c7.91,44.27,38.48,66.4,95.26,66.4c31.92,0,56.61-7.32,58.49-7.92c0.08,0,0.08,0,0.08,0
		L2226.93,983.5z M2072.33,931.48c0,0.68,0,1.36-0.09,2.04c-2.13,32.35-36.69,60.62-92.54,60.62c-35.84,0-57.64-14.22-57.64-41.63
		c0-2.04,0.17-4,0.43-5.87c4.51-34.56,50.91-47.51,144.56-49.97h5.28V931.48z"/>
	<path class="st0" d="M1083.16,852.39c0-114.26-69.02-197.52-189.58-197.52c-127.55,0-210.55,89.46-210.55,214.35
		c0,125.78,83,214.35,221.91,214.35c89.12,0,149.4-36.31,177.36-73.52l-56.79-66.43c-17.48,19.49-48.05,47.83-106.59,47.83
		c-68.14,0-106.59-38.97-117.07-94.78h277.83C1079.66,896.68,1083.16,878.96,1083.16,852.39z M801.84,833.79
		c8.74-55.8,44.56-86.8,91.73-86.8c49.8,0,79.5,37.2,80.38,86.8H801.84z"/>
</g>
<g>
	<path class="st0" d="M4652.04,220.37c-285.09,223.14-553.86,267.28-553.86,267.28l-30.77,88.59
		c348.2-84.43,511.16-233.27,560.77-282.93C4641.75,251.77,4652.04,220.37,4652.04,220.37S4637.96,263.42,4652.04,220.37z"/>
	<path class="st0" d="M3876.03,236.3C4367.59,189.85,4572.26,89.73,4754.69,0c0,0-4.25,11.75-21.88,59.34
		c-40.53,34.43-330.2,225.49-913.86,276.9L3876.03,236.3z"/>
	<path class="st0" d="M2975.04,412.52l-61.45,105.31c994.47,27.29,1346.31-109.78,1518.14-208.82
		c8.46-13.45,28.29-54.19,35.54-69.01C4118.11,390.89,3596.95,456.29,2975.04,412.52z"/>
	<path class="st0" d="M3330.78,1006.48l-14.77,69.25c-57.22,7.02-146.47,7.93-146.47,7.93c-159.87,0-218.63-80.47-191.51-207.58
		c27.19-127.63,126.25-214.4,284.75-214.4c0,0,96.18,3.78,161.44,9.46l-35.72,67.75h-142.81c-84.95,0-122,68.02-137.22,139.47
		c-14.68,69.17-8.5,128.22,78.14,128.22L3330.78,1006.48z"/>
	<path class="st0" d="M3721.47,911.16c-27.33,8.47-61.58,11.31-101.38,12.44c-25.69,0.58-67.16,0-87.28,0l-32.86,154.01h-124.93
		l86.63-406.47h199.47c53.02,0,98.82,2.78,131.26,23.66c36.64,23.54,48.83,60.63,39.64,103.96
		C3820.95,850.53,3781.9,892.15,3721.47,911.16z M3626.48,739.13h-54.36l-24.88,116.42h49.09c52.32,0,101.1-11.26,111.41-59.65
		C3717.71,749.36,3677.5,739.13,3626.48,739.13z"/>
	<path class="st0" d="M4352.52,968.82c-4.55,21.6,8.54,39.1,29.35,39.1h177.65l-39.43,69.7h-255.51c-34.01,0-55.38-28.56-47.92-63.9
		l73.1-342.57h126.28L4352.52,968.82z"/>
	<path class="st0" d="M3994.78,837.02h194.96l-14.65,68.65h-194.92l-36.65,172.05h-122.99l73.04-342.57
		c7.58-35.35,41.2-64.01,75.1-64.01h283.65l-39.34,69.72h-160.08c-20.73,0-41.37,17.61-46.04,39.19L3994.78,837.02z"/>
	<g>
		<g>
			<g>
				<path class="st0" d="M3396.63,1242.85h87.76l-6.59,29.62h-87.73l-9.86,44.59h88.04l-6.65,29.9h-143.31l32.88-148.19
					c3.33-15.33,18.44-27.73,33.75-27.73h127.66l-17.7,30.22h-72.07c-9.32,0-18.63,7.57-20.68,16.86L3396.63,1242.85z"/>
				<path class="st0" d="M3806.82,1242.85h87.71l-6.58,29.62h-87.71l-9.86,44.59h87.97l-6.6,29.9h-143.4l32.88-148.19
					c3.37-15.33,18.51-27.73,33.79-27.73h127.71l-17.71,30.22h-72.07c-9.37,0-18.67,7.57-20.7,16.86L3806.82,1242.85z"/>
				<path class="st0" d="M4308.23,1346.96l39-175.92h56.83l-39,175.92H4308.23z"/>
				<path class="st0" d="M3618.18,1346.96l-43.24-145.7l-32.27,145.7h-48.4l38.99-175.92h78.59l43.15,146.02l32.4-146.02h48.4
					l-39.07,175.92H3618.18z"/>
				<path class="st0" d="M4083.34,1346.96h-61.54l-22.67-66.68h-23.66l-14.8,66.68h-56.17l39.01-175.92h89.69
					c23.89,0,44.41,1.2,59.05,10.22c16.51,10.24,22.11,26,17.84,45.04c-4.22,19.06-22.37,40.85-59.32,47.65L4083.34,1346.96z
					 M4017.6,1200.5h-24.56l-11.1,50.32h22.01c23.6,0,45.66-4.86,50.2-25.78C4058.63,1204.83,4040.6,1200.5,4017.6,1200.5z"/>
				<path class="st0" d="M4297.63,1250.62l-21.36,96.33c-40.34,3.51-75.82,3.4-75.82,3.4c-71.96,0-98.36-34.77-86.13-89.76
					c12.15-55.21,56.76-92.76,128.1-92.76c0,0,43.26,1.71,72.59,4.11l-17.06,29.3h-63.19c-39.1,0-54.34,26.64-61.8,60.34
					c-6.6,29.9,5.19,58.61,40.85,58.61c11,0,12.29-3.22,12.29-3.22l14.75-66.36H4297.63z"/>
				<path class="st0" d="M4546.64,1346.96l-8.22-39.43h-76.33l-25.74,39.43h-54.7l123-175.92h56.12l46.62,175.92H4546.64z
					 M4523.56,1201.26l-45.46,78.27h55.66L4523.56,1201.26z"/>
			</g>
		</g>
	</g>
</g>
</svg>
