<svg width="402" height="377" viewBox="0 0 402 377" fill="none" xmlns="http://www.w3.org/2000/svg">
<mask id="mask0_526_62" style="mask-type:luminance" maskUnits="userSpaceOnUse" x="66" y="20" width="336" height="284">
<path d="M66.8281 20.9478H401.62V303.333H66.8281V20.9478Z" fill="white"/>
</mask>
<g mask="url(#mask0_526_62)">
<path d="M83.521 129.443V52.3436C83.521 48.4269 85.1304 44.8592 87.7189 42.2707C90.3127 39.6821 93.8804 38.0675 97.797 38.0675H371.037C374.953 38.0675 378.521 39.6821 381.11 42.2707C383.698 44.8592 385.307 48.4269 385.307 52.3436V271.969C385.307 275.885 383.698 279.453 381.11 282.047C378.521 284.635 374.953 286.245 371.037 286.245H250.828C249.427 291.802 247.656 297.25 245.547 302.557H371.037C379.453 302.557 387.104 299.12 392.641 293.578C398.182 288.036 401.62 280.39 401.62 271.969V52.3436C401.62 43.9217 398.182 36.2759 392.641 30.7342C387.104 25.1978 379.453 21.7603 371.037 21.7603H97.797C89.3752 21.7603 81.7293 25.1978 76.1877 30.7342C70.646 36.2759 67.2085 43.9217 67.2085 52.3436V135.953C72.495 133.417 77.9429 131.245 83.521 129.443Z" fill="#0C2C54"/>
</g>
<mask id="mask1_526_62" style="mask-type:luminance" maskUnits="userSpaceOnUse" x="66" y="90" width="336" height="17">
<path d="M66.8281 90H401.62V106.974H66.8281V90Z" fill="white"/>
</mask>
<g mask="url(#mask1_526_62)">
<path d="M75.3647 90.4897C70.8595 90.4897 67.2085 94.1408 67.2085 98.646C67.2085 103.151 70.8595 106.802 75.3647 106.802H393.464C397.969 106.802 401.62 103.151 401.62 98.646C401.62 94.1408 397.969 90.4897 393.464 90.4897H75.3647Z" fill="#0C2C54"/>
</g>
<mask id="mask2_526_62" style="mask-type:luminance" maskUnits="userSpaceOnUse" x="120" y="0" width="18" height="58">
<path d="M120 0.770996H137.333V58.0002H120V0.770996Z" fill="white"/>
</mask>
<g mask="url(#mask2_526_62)">
<path d="M136.537 8.92725C136.537 4.42204 132.886 0.770996 128.38 0.770996C123.875 0.770996 120.224 4.42204 120.224 8.92725V49.7085C120.224 54.2137 123.875 57.8647 128.38 57.8647C132.886 57.8647 136.537 54.2137 136.537 49.7085V8.92725Z" fill="#0C2C54"/>
</g>
<mask id="mask3_526_62" style="mask-type:luminance" maskUnits="userSpaceOnUse" x="190" y="0" width="18" height="58">
<path d="M190.667 0.770996H208V58.0002H190.667V0.770996Z" fill="white"/>
</mask>
<g mask="url(#mask3_526_62)">
<path d="M207.224 8.92725C207.224 4.42204 203.573 0.770996 199.067 0.770996C194.562 0.770996 190.911 4.42204 190.911 8.92725V49.7085C190.911 54.2137 194.562 57.8647 199.067 57.8647C203.573 57.8647 207.224 54.2137 207.224 49.7085V8.92725Z" fill="#0C2C54"/>
</g>
<mask id="mask4_526_62" style="mask-type:luminance" maskUnits="userSpaceOnUse" x="261" y="0" width="18" height="58">
<path d="M261.333 0.770996H278.667V58.0002H261.333V0.770996Z" fill="white"/>
</mask>
<g mask="url(#mask4_526_62)">
<path d="M277.912 8.92725C277.912 4.42204 274.261 0.770996 269.755 0.770996C265.255 0.770996 261.599 4.42204 261.599 8.92725V49.7085C261.599 54.2137 265.255 57.8647 269.755 57.8647C274.261 57.8647 277.912 54.2137 277.912 49.7085V8.92725Z" fill="#0C2C54"/>
</g>
<mask id="mask5_526_62" style="mask-type:luminance" maskUnits="userSpaceOnUse" x="332" y="0" width="18" height="58">
<path d="M332 0.770996H349.333V58.0002H332V0.770996Z" fill="white"/>
</mask>
<g mask="url(#mask5_526_62)">
<path d="M348.604 8.92725C348.604 4.42204 344.948 0.770996 340.448 0.770996C335.943 0.770996 332.292 4.42204 332.292 8.92725V49.7085C332.292 54.2137 335.943 57.8647 340.448 57.8647C344.948 57.8647 348.604 54.2137 348.604 49.7085V8.92725Z" fill="#0C2C54"/>
</g>
<mask id="mask6_526_62" style="mask-type:luminance" maskUnits="userSpaceOnUse" x="0" y="130" width="247" height="247">
<path d="M0.979004 130.338H246.667V376.771H0.979004V130.338Z" fill="white"/>
</mask>
<g mask="url(#mask6_526_62)">
<path d="M123.812 131.276C157.734 131.276 188.443 145.026 210.672 167.25C232.896 189.479 246.651 220.187 246.651 254.104C246.651 288.026 232.896 318.739 210.672 340.963C188.443 363.193 157.734 376.943 123.812 376.943V360.63C153.234 360.63 179.864 348.708 199.135 329.432C218.417 310.156 230.338 283.526 230.338 254.104C230.338 224.693 218.417 198.062 199.135 178.786C179.864 159.51 153.234 147.588 123.812 147.588V131.276ZM123.812 131.276V147.588C94.3957 147.588 67.7655 159.51 48.4946 178.786C29.2134 198.062 17.2915 224.693 17.2915 254.104C17.2915 283.526 29.2134 310.156 48.4946 329.432C67.7655 348.708 94.3957 360.63 123.812 360.63V376.943C89.8957 376.943 59.1873 363.193 36.9582 340.963C14.729 318.739 0.979004 288.026 0.979004 254.104C0.979004 220.187 14.729 189.479 36.9582 167.25C59.1873 145.026 89.8957 131.276 123.812 131.276Z" fill="#0C2C54"/>
</g>
<path d="M343.01 123H359.323C361.578 123 363.401 124.823 363.401 127.078V160.615C363.401 162.87 361.578 164.693 359.323 164.693H343.01V156.536H355.245V131.156H343.01V123ZM326.703 123H343.01V131.156H330.776V156.536H343.01V164.693H326.703C324.448 164.693 322.62 162.87 322.62 160.615V127.078C322.62 124.823 324.448 123 326.703 123Z" fill="#0C2C54"/>
<path d="M279.276 123H295.588C297.838 123 299.667 124.823 299.667 127.078V160.615C299.667 162.87 297.838 164.693 295.588 164.693H279.276V156.536H291.51V131.156H279.276V123ZM262.963 123H279.276V131.156H267.042V156.536H279.276V164.693H262.963C260.708 164.693 258.885 162.87 258.885 160.615V127.078C258.885 124.823 260.708 123 262.963 123Z" fill="#0C2C54"/>
<path d="M343.01 175.13H359.323C361.578 175.13 363.401 176.958 363.401 179.208V212.744C363.401 215 361.578 216.823 359.323 216.823H343.01V208.666H355.245V183.286H343.01V175.13ZM326.703 175.13H343.01V183.286H330.776V208.666H343.01V216.823H326.703C324.448 216.823 322.62 215 322.62 212.744V179.208C322.62 176.958 324.448 175.13 326.703 175.13Z" fill="#0C2C54"/>
<path d="M279.276 175.13H295.588C297.838 175.13 299.667 176.958 299.667 179.208V212.744C299.667 215 297.838 216.823 295.588 216.823H279.276V208.666H291.51V183.286H279.276V175.13ZM262.963 175.13H279.276V183.286H267.042V208.666H279.276V216.823H262.963C260.708 216.823 258.885 215 258.885 212.744V179.208C258.885 176.958 260.708 175.13 262.963 175.13Z" fill="#0C2C54"/>
<path d="M343.01 227.261H359.323C361.578 227.261 363.401 229.089 363.401 231.339V264.875C363.401 267.131 361.578 268.953 359.323 268.953H343.01V260.797H355.245V235.417H343.01V227.261ZM326.703 227.261H343.01V235.417H330.776V260.797H343.01V268.953H326.703C324.448 268.953 322.62 267.131 322.62 264.875V231.339C322.62 229.089 324.448 227.261 326.703 227.261Z" fill="#0C2C54"/>
<path d="M279.276 227.261H295.588C297.838 227.261 299.667 229.089 299.667 231.339V264.875C299.667 267.131 297.838 268.953 295.588 268.953H279.276V260.797H291.51V235.417H279.276V227.261ZM262.963 227.261H279.276V235.417H267.042V260.797H279.276V268.953H262.963C260.708 268.953 258.885 267.131 258.885 264.875V231.339C258.885 229.089 260.708 227.261 262.963 227.261Z" fill="#0C2C54"/>
<path d="M132.458 172.058C132.458 167.552 128.812 163.901 124.302 163.901C119.797 163.901 116.151 167.552 116.151 172.058V253.615C116.151 258.125 119.797 261.776 124.302 261.776C128.812 261.776 132.458 258.125 132.458 253.615V172.058Z" fill="#0C2C54"/>
<path d="M129.432 247.313C125.953 244.479 120.828 245.005 117.995 248.49C115.161 251.974 115.693 257.094 119.172 259.927L163.521 295.886C167.005 298.719 172.125 298.188 174.958 294.709C177.792 291.224 177.266 286.099 173.781 283.271L129.432 247.313Z" fill="#0C2C54"/>
</svg>
