<svg width="328" height="256" viewBox="0 0 328 256" fill="none" xmlns="http://www.w3.org/2000/svg">
<path d="M254 132.5C250.856 132.5 249.922 133.055 249.922 130.729V9.83674H79.6245V127.713C79.6245 130.043 77.0767 131.928 73.929 131.928C70.7812 131.928 68.2334 130.04 68.2334 127.713V5.62174C68.2334 3.29225 70.7812 1.40674 73.929 1.40674H255.618C258.762 1.40674 261.313 3.29225 261.313 5.62174L264 123.5C264 125.829 259 127 254 132.5Z" fill="#0C2C57"/>
<path d="M313.946 85.9345C313.946 85.4736 313.82 85.0325 313.637 84.6082C313.586 84.4929 313.522 84.3862 313.46 84.2738C313.237 83.8691 312.946 83.4954 312.571 83.1638C312.528 83.1245 312.514 83.0739 312.467 83.0346C312.452 83.0233 312.431 83.0205 312.416 83.0065C312.071 82.7283 311.682 82.481 311.243 82.2815L251.5 55C248.919 53.8339 252.097 56.4799 250.606 58.5003C257.983 60.3465 254.701 65.8465 250.606 64.0003L299.57 86.755L186.956 169.956L167.161 157.783C165.199 156.581 162.434 156.581 160.479 157.783L140.685 169.956L28.0559 86.7578L78.3343 64.0923C79.5 62.5 79.5 61.5 79 59C77.5095 56.9852 75.5189 55.6258 72.9339 56.792L16.3873 82.2843C15.9444 82.4838 15.5556 82.7339 15.2099 83.0121C15.1955 83.0233 15.1775 83.0261 15.1667 83.0374C15.1235 83.0711 15.1127 83.116 15.0731 83.1498C14.6915 83.487 14.3963 83.8691 14.1659 84.2822C14.1046 84.3918 14.0434 84.4929 13.9966 84.6025C13.813 85.0297 13.687 85.4708 13.687 85.9345V250.092C13.687 250.142 13.705 250.19 13.705 250.238C13.7122 250.39 13.7338 250.539 13.7626 250.688C13.7878 250.817 13.8094 250.943 13.8454 251.067C13.885 251.202 13.9462 251.334 14.0038 251.466C14.0614 251.598 14.119 251.727 14.1947 251.851C14.2631 251.969 14.3495 252.081 14.4359 252.197C14.5331 252.326 14.6267 252.449 14.7419 252.57C14.7815 252.612 14.8067 252.66 14.8463 252.7C14.9111 252.764 14.9903 252.812 15.0587 252.871C15.1847 252.981 15.3108 253.087 15.4512 253.188C15.5772 253.278 15.7032 253.36 15.8364 253.439C15.984 253.526 16.1352 253.607 16.29 253.683C16.4305 253.748 16.5709 253.807 16.7149 253.863C16.8841 253.927 17.0605 253.986 17.2405 254.04C17.3881 254.082 17.5358 254.116 17.687 254.149C17.8706 254.189 18.0542 254.22 18.245 254.245C18.4142 254.265 18.5798 254.276 18.7491 254.284C18.8679 254.287 18.9723 254.307 19.0875 254.307H308.546C308.938 254.307 309.32 254.27 309.691 254.208C309.784 254.192 309.871 254.164 309.961 254.144C310.238 254.085 310.508 254.017 310.764 253.927C310.886 253.885 310.998 253.829 311.117 253.779C311.333 253.686 311.541 253.59 311.739 253.478C311.862 253.408 311.973 253.332 312.089 253.253C312.269 253.129 312.438 252.997 312.596 252.857C312.657 252.803 312.733 252.761 312.791 252.705C312.834 252.66 312.863 252.61 312.902 252.565C313.007 252.455 313.097 252.337 313.183 252.219C313.277 252.095 313.367 251.975 313.442 251.848C313.511 251.733 313.565 251.612 313.619 251.491C313.684 251.351 313.745 251.21 313.788 251.067C313.824 250.949 313.842 250.831 313.867 250.71C313.896 250.553 313.921 250.395 313.928 250.238C313.932 250.19 313.946 250.145 313.946 250.097V85.9345ZM303.145 95.7273V241.4L195.532 175.228L303.145 95.7273ZM163.817 166.461L292.964 245.877H34.6697L163.817 166.461ZM24.488 241.403V95.7273L132.102 175.231L24.488 241.403Z" fill="#0C2C57"/>
<path d="M163.816 39.3306C130.348 39.3306 103.119 60.5826 103.119 86.7044C103.119 112.826 130.348 134.078 163.816 134.078C166.801 134.078 169.217 132.19 169.217 129.863C169.217 127.534 166.801 125.648 163.816 125.648C136.303 125.648 113.92 108.178 113.92 86.7044C113.92 65.2303 136.303 47.7606 163.816 47.7606C191.33 47.7606 213.709 65.2303 213.709 86.7044C213.713 93.6928 212.356 105.481 203.6 105.919C200.91 105.919 192.73 105.919 192.73 92.3778V80.986C192.73 78.6565 190.311 76.771 187.33 76.771C184.349 76.771 181.929 78.6565 181.929 80.986V92.3778C181.929 97.0339 177.076 100.822 171.11 100.822H156.511C150.545 100.822 145.692 97.0339 145.692 92.3778V80.986C145.692 76.3298 150.545 72.542 156.511 72.542H171.11C174.092 72.542 176.511 70.6564 176.511 68.327C176.511 65.9975 174.092 64.112 171.11 64.112H156.511C144.591 64.112 134.891 71.6821 134.891 80.986V92.3778C134.891 101.682 144.591 109.252 156.511 109.252H171.11C176.453 109.252 181.339 107.723 185.116 105.211C190.181 113.447 199.931 114.344 203.895 114.344C203.909 114.344 203.927 114.344 203.938 114.344C211.625 113.967 224.517 109.873 224.51 86.7044C224.51 60.5826 197.285 39.3306 163.816 39.3306Z" fill="#0C2C57"/>
</svg>
